mtllib Wall_Paneled.mtl
o Wall_Paneled
v -2.0 0.0 -0.075
v 2.0 0.0 -0.075
v 2.0 3.0 -0.075
v -2.0 3.0 -0.075
v -2.0 0.0 0.075
v 2.0 0.0 0.075
v 2.0 3.0 0.075
v -2.0 3.0 0.075
v -1.8 1.5 0.0
v 0.0 1.5 0.0
v 0.0 2.8 0.0
v -1.8 2.8 0.0
v -1.8 1.5 0.1
v 0.0 1.5 0.1
v 0.0 2.8 0.1
v -1.8 2.8 0.1
v 1.8 1.5 0.0
v 1.8 2.8 0.0
v 1.8 1.5 0.1
v 1.8 2.8 0.1
v -1.8 0.0 0.0
v 0.0 0.0 0.0
v 0.0 1.3 0.0
v -1.8 1.3 0.0
v -1.8 0.0 0.1
v 0.0 0.0 0.1
v 0.0 1.3 0.1
v -1.8 1.3 0.1
v 1.8 0.0 0.0
v 1.8 1.3 0.0
v 1.8 0.0 0.1
v 1.8 1.3 0.1
vn 0 0 -1
vn 0 0 1
vn 0 -1 0
vn 0 1 0
vn -1 0 0
vn 1 0 0
vn 0 0 -1
vn 0 0 1
vn 0 -1 0
vn 0 1 0
vn -1 0 0
vn 1 0 0
vn 0 0 -1
vn 0 0 1
vn 0 -1 0
vn 0 1 0
vn -1 0 0
vn 1 0 0
vn 0 0 -1
vn 0 0 1
vn 0 -1 0
vn 0 1 0
vn -1 0 0
vn 1 0 0
vn 0 0 -1
vn 0 0 1
vn 0 -1 0
vn 0 1 0
vn -1 0 0
vn 1 0 0
s off
usemtl Wall_Paneled_BaseWall
f 5//2 6//2 7//2 8//2
f 2//1 1//1 4//1 3//1
f 4//4 8//4 7//4 3//4
f 2//3 6//3 5//3 1//3
f 6//6 2//6 3//6 7//6
f 1//5 5//5 8//5 4//5
usemtl Wall_Paneled_Panel1
f 13//8 14//8 15//8 16//8
f 10//7 9//7 12//7 11//7
f 12//10 16//10 15//10 11//10
f 10//9 14//9 13//9 9//9
f 14//12 10//12 11//12 15//12
f 9//11 13//11 16//11 12//11
usemtl Wall_Paneled_Panel2
f 14//14 19//14 20//14 15//14
f 17//13 10//13 11//13 18//13
f 11//16 15//16 20//16 18//16
f 17//15 19//15 14//15 10//15
f 19//18 17//18 18//18 20//18
f 10//17 14//17 15//17 11//17
usemtl Wall_Paneled_Panel3
f 25//20 26//20 27//20 28//20
f 22//19 21//19 24//19 23//19
f 24//22 28//22 27//22 23//22
f 22//21 26//21 25//21 21//21
f 26//24 22//24 23//24 27//24
f 21//23 25//23 28//23 24//23
usemtl Wall_Paneled_Panel4
f 26//26 31//26 32//26 27//26
f 29//25 22//25 23//25 30//25
f 23//28 27//28 32//28 30//28
f 29//27 31//27 26//27 22//27
f 31//30 29//30 30//30 32//30
f 22//29 26//29 27//29 23//29
