mtllib Sofa.mtl
o Sofa
v -1.0 0.0 -0.4
v 1.0 0.0 -0.4
v 1.0 0.4 -0.4
v -1.0 0.4 -0.4
v -1.0 0.0 0.4
v 1.0 0.0 0.4
v 1.0 0.4 0.4
v -1.0 0.4 0.4
v 1.0 0.9 -0.4
v -1.0 0.9 -0.4
v -1.0 0.4 -0.19999999999999998
v 1.0 0.4 -0.19999999999999998
v 1.0 0.9 -0.19999999999999998
v -1.0 0.9 -0.19999999999999998
v -0.8 0.4 -0.4
v -0.8 0.7000000000000001 -0.4
v -1.0 0.7000000000000001 -0.4
v -0.8 0.4 0.4
v -0.8 0.7000000000000001 0.4
v -1.0 0.7000000000000001 0.4
v 0.8 0.4 -0.4
v 1.0 0.7000000000000001 -0.4
v 0.8 0.7000000000000001 -0.4
v 0.8 0.4 0.4
v 1.0 0.7000000000000001 0.4
v 0.8 0.7000000000000001 0.4
vn 0 0 -1
vn 0 0 1
vn 0 -1 0
vn 0 1 0
vn -1 0 0
vn 1 0 0
vn 0 0 -1
vn 0 0 1
vn 0 -1 0
vn 0 1 0
vn -1 0 0
vn 1 0 0
vn 0 0 -1
vn 0 0 1
vn 0 -1 0
vn 0 1 0
vn -1 0 0
vn 1 0 0
vn 0 0 -1
vn 0 0 1
vn 0 -1 0
vn 0 1 0
vn -1 0 0
vn 1 0 0
s off
usemtl Sofa_Base
f 5//2 6//2 7//2 8//2
f 2//1 1//1 4//1 3//1
f 4//4 8//4 7//4 3//4
f 2//3 6//3 5//3 1//3
f 6//6 2//6 3//6 7//6
f 1//5 5//5 8//5 4//5
usemtl Sofa_Back
f 11//8 12//8 13//8 14//8
f 3//7 4//7 10//7 9//7
f 10//10 14//10 13//10 9//10
f 3//9 12//9 11//9 4//9
f 12//12 3//12 9//12 13//12
f 4//11 11//11 14//11 10//11
usemtl Sofa_LeftArm
f 8//14 18//14 19//14 20//14
f 15//13 4//13 17//13 16//13
f 17//16 20//16 19//16 16//16
f 15//15 18//15 8//15 4//15
f 18//18 15//18 16//18 19//18
f 4//17 8//17 20//17 17//17
usemtl Sofa_RightArm
f 24//20 7//20 25//20 26//20
f 3//19 21//19 23//19 22//19
f 23//22 26//22 25//22 22//22
f 3//21 7//21 24//21 21//21
f 7//24 3//24 22//24 25//24
f 21//23 24//23 26//23 23//23
