v -0.2500 -0.2500 -0.2500
v -0.2500 -0.2500 0.2500
v -0.2500 0.2500 -0.2500
v -0.2500 0.2500 0.2500
v 0.2500 -0.2500 -0.2500
v 0.2500 -0.2500 0.2500
v 0.2500 0.2500 -0.2500
v 0.2500 0.2500 0.2500
v -0.0500 -0.0500 0.3000
v -0.0500 -0.0500 0.4000
v -0.0500 0.0500 0.3000
v -0.0500 0.0500 0.4000
v 0.0500 -0.0500 0.3000
v 0.0500 -0.0500 0.4000
v 0.0500 0.0500 0.3000
v 0.0500 0.0500 0.4000
v -0.1500 -0.0250 0.4500
v -0.1500 -0.0250 0.5500
v -0.1500 0.0250 0.4500
v -0.1500 0.0250 0.5500
v 0.1500 -0.0250 0.4500
v 0.1500 -0.0250 0.5500
v 0.1500 0.0250 0.4500
v 0.1500 0.0250 0.5500
v -0.1500 -0.0250 -0.5500
v -0.1500 -0.0250 -0.4500
v -0.1500 0.0250 -0.5500
v -0.1500 0.0250 -0.4500
v 0.1500 -0.0250 -0.5500
v 0.1500 -0.0250 -0.4500
v 0.1500 0.0250 -0.5500
v 0.1500 0.0250 -0.4500
v -0.6500 -0.0250 -0.0500
v -0.6500 -0.0250 0.0500
v -0.6500 0.0250 -0.0500
v -0.6500 0.0250 0.0500
v -0.3500 -0.0250 -0.0500
v -0.3500 -0.0250 0.0500
v -0.3500 0.0250 -0.0500
v -0.3500 0.0250 0.0500
v 0.3500 -0.0250 -0.0500
v 0.3500 -0.0250 0.0500
v 0.3500 0.0250 -0.0500
v 0.3500 0.0250 0.0500
v 0.6500 -0.0250 -0.0500
v 0.6500 -0.0250 0.0500
v 0.6500 0.0250 -0.0500
v 0.6500 0.0250 0.0500

g body
f 1 2 4
f 1 4 3
f 5 6 8
f 5 8 7
f 1 2 6
f 1 6 5
f 3 4 8
f 3 8 7
f 1 3 7
f 1 7 5
f 2 4 8
f 2 8 6
g eye
f 9 10 12
f 9 12 11
f 13 14 16
f 13 16 15
f 9 10 14
f 9 14 13
f 11 12 16
f 11 16 15
f 9 11 15
f 9 15 13
f 10 12 16
f 10 16 14
g panel0
f 17 18 20
f 17 20 19
f 21 22 24
f 21 24 23
f 17 18 22
f 17 22 21
f 19 20 24
f 19 24 23
f 17 19 23
f 17 23 21
f 18 20 24
f 18 24 22
g panel1
f 25 26 28
f 25 28 27
f 29 30 32
f 29 32 31
f 25 26 30
f 25 30 29
f 27 28 32
f 27 32 31
f 25 27 31
f 25 31 29
f 26 28 32
f 26 32 30
g panel2
f 33 34 36
f 33 36 35
f 37 38 40
f 37 40 39
f 33 34 38
f 33 38 37
f 35 36 40
f 35 40 39
f 33 35 39
f 33 39 37
f 34 36 40
f 34 40 38
g panel3
f 41 42 44
f 41 44 43
f 45 46 48
f 45 48 47
f 41 42 46
f 41 46 45
f 43 44 48
f 43 48 47
f 41 43 47
f 41 47 45
f 42 44 48
f 42 48 46
