v -0.7500 -0.4000 0.0000
v 0.7500 -0.4000 0.0000
v 0.7500 0.4000 0.0000
v -0.7500 0.4000 0.0000
v -0.7500 -0.4000 1.2000
v 0.7500 -0.4000 1.2000
v 0.7500 0.4000 1.2000
v -0.7500 0.4000 1.2000
v -0.6000 -0.2000 1.3000
v 0.6000 -0.2000 1.3000
v 0.6000 0.2000 1.3000
v -0.6000 0.2000 1.3000
v -0.6000 -0.2000 1.5000
v 0.6000 -0.2000 1.5000
v 0.6000 0.2000 1.5000
v -0.6000 0.2000 1.5000
v 0.7000 -0.3000 0.3000
v 1.0000 -0.3000 0.3000
v 1.0000 0.3000 0.3000
v 0.7000 0.3000 0.3000
v 0.7000 -0.3000 0.9000
v 1.0000 -0.3000 0.9000
v 1.0000 0.3000 0.9000
v 0.7000 0.3000 0.9000
v -1.0000 -0.3000 0.3000
v -0.7000 -0.3000 0.3000
v -0.7000 0.3000 0.3000
v -1.0000 0.3000 0.3000
v -1.0000 -0.3000 0.9000
v -0.7000 -0.3000 0.9000
v -0.7000 0.3000 0.9000
v -1.0000 0.3000 0.9000
f 1 2 3 4
f 5 6 7 8
f 1 2 6 5
f 2 3 7 6
f 3 4 8 7
f 4 1 5 8
f 9 10 11 12
f 13 14 15 16
f 9 10 14 13
f 10 11 15 14
f 11 12 16 15
f 12 9 13 16
f 17 18 19 20
f 21 22 23 24
f 17 18 22 21
f 18 19 23 22
f 19 20 24 23
f 20 17 21 24
f 25 26 27 28
f 29 30 31 32
f 25 26 30 29
f 26 27 31 30
f 27 28 32 31
f 28 25 29 32
