v -0.2000 -0.2000 0.0000
v 0.2000 -0.2000 0.0000
v 0.2000 0.2000 0.0000
v -0.2000 0.2000 0.0000
v -0.2000 -0.2000 0.2000
v 0.2000 -0.2000 0.2000
v 0.2000 0.2000 0.2000
v -0.2000 0.2000 0.2000
v -0.0500 -0.0500 0.2000
v 0.0500 -0.0500 0.2000
v 0.0500 0.0500 0.2000
v -0.0500 0.0500 0.2000
v -0.0500 -0.0500 1.4000
v 0.0500 -0.0500 1.4000
v 0.0500 0.0500 1.4000
v -0.0500 0.0500 1.4000
v -0.6000 -0.0500 1.3000
v 0.6000 -0.0500 1.3000
v 0.6000 0.0500 1.3000
v -0.6000 0.0500 1.3000
v -0.6000 -0.0500 2.3000
v 0.6000 -0.0500 2.3000
v 0.6000 0.0500 2.3000
v -0.6000 0.0500 2.3000
f 1 2 3 4
f 5 6 7 8
f 1 2 6 5
f 2 3 7 6
f 3 4 8 7
f 4 1 5 8
f 9 10 11 12
f 13 14 15 16
f 9 10 14 13
f 10 11 15 14
f 11 12 16 15
f 12 9 13 16
f 17 18 19 20
f 21 22 23 24
f 17 18 22 21
f 18 19 23 22
f 19 20 24 23
f 20 17 21 24
