v -0.2000 -0.2000 -0.0500
v -0.2000 -0.2000 0.0500
v -0.2000 0.2000 -0.0500
v -0.2000 0.2000 0.0500
v 0.2000 -0.2000 -0.0500
v 0.2000 -0.2000 0.0500
v 0.2000 0.2000 -0.0500
v 0.2000 0.2000 0.0500
v -0.1500 -0.1500 0.0450
v -0.1500 -0.1500 0.0650
v -0.1500 0.1500 0.0450
v -0.1500 0.1500 0.0650
v 0.1500 -0.1500 0.0450
v 0.1500 -0.1500 0.0650
v 0.1500 0.1500 0.0450
v 0.1500 0.1500 0.0650
v -0.3500 -0.6250 -0.0250
v -0.3500 -0.6250 0.0250
v -0.3500 -0.4750 -0.0250
v -0.3500 -0.4750 0.0250
v 0.3500 -0.6250 -0.0250
v 0.3500 -0.6250 0.0250
v 0.3500 -0.4750 -0.0250
v 0.3500 -0.4750 0.0250
v -0.3500 0.4750 -0.0250
v -0.3500 0.4750 0.0250
v -0.3500 0.6250 -0.0250
v -0.3500 0.6250 0.0250
v 0.3500 0.4750 -0.0250
v 0.3500 0.4750 0.0250
v 0.3500 0.6250 -0.0250
v 0.3500 0.6250 0.0250

g body
f 1 2 4
f 1 4 3
f 5 6 8
f 5 8 7
f 1 2 6
f 1 6 5
f 3 4 8
f 3 8 7
f 1 3 7
f 1 7 5
f 2 4 8
f 2 8 6
g screen
f 9 10 12
f 9 12 11
f 13 14 16
f 13 16 15
f 9 10 14
f 9 14 13
f 11 12 16
f 11 16 15
f 9 11 15
f 9 15 13
f 10 12 16
f 10 16 14
g strap
f 17 18 20
f 17 20 19
f 21 22 24
f 21 24 23
f 17 18 22
f 17 22 21
f 19 20 24
f 19 24 23
f 17 19 23
f 17 23 21
f 18 20 24
f 18 24 22
f 25 26 28
f 25 28 27
f 29 30 32
f 29 32 31
f 25 26 30
f 25 30 29
f 27 28 32
f 27 32 31
f 25 27 31
f 25 31 29
f 26 28 32
f 26 32 30
