mtllib Wall_Vent.mtl
o Wall_Vent
v -2.0 0.0 -0.1
v 2.0 0.0 -0.1
v 2.0 3.0 -0.1
v -2.0 3.0 -0.1
v -2.0 0.0 0.1
v 2.0 0.0 0.1
v 2.0 3.0 0.1
v -2.0 3.0 0.1
v -0.5 0.6 0.05
v 0.5 0.6 0.05
v 0.5 1.4 0.05
v -0.5 1.4 0.05
v -0.5 0.6 0.15000000000000002
v 0.5 0.6 0.15000000000000002
v 0.5 1.4 0.15000000000000002
v -0.5 1.4 0.15000000000000002
v -0.45 1.175 0.095
v 0.45 1.175 0.095
v 0.45 1.2249999999999999 0.095
v -0.45 1.2249999999999999 0.095
v -0.45 1.175 0.145
v 0.45 1.175 0.145
v 0.45 1.2249999999999999 0.145
v -0.45 1.2249999999999999 0.145
v -0.45 0.975 0.095
v 0.45 0.975 0.095
v 0.45 1.025 0.095
v -0.45 1.025 0.095
v -0.45 0.975 0.145
v 0.45 0.975 0.145
v 0.45 1.025 0.145
v -0.45 1.025 0.145
v -0.45 0.775 0.095
v 0.45 0.775 0.095
v 0.45 0.8250000000000001 0.095
v -0.45 0.8250000000000001 0.095
v -0.45 0.775 0.145
v 0.45 0.775 0.145
v 0.45 0.8250000000000001 0.145
v -0.45 0.8250000000000001 0.145
vn 0 0 -1
vn 0 0 1
vn 0 -1 0
vn 0 1 0
vn -1 0 0
vn 1 0 0
vn 0 0 -1
vn 0 0 1
vn 0 -1 0
vn 0 1 0
vn -1 0 0
vn 1 0 0
vn 0 0 -1
vn 0 0 1
vn 0 -1 0
vn 0 1 0
vn -1 0 0
vn 1 0 0
vn 0 0 -1
vn 0 0 1
vn 0 -1 0
vn 0 1 0
vn -1 0 0
vn 1 0 0
vn 0 0 -1
vn 0 0 1
vn 0 -1 0
vn 0 1 0
vn -1 0 0
vn 1 0 0
s off
usemtl Wall_Vent_MainWall
f 5//2 6//2 7//2 8//2
f 2//1 1//1 4//1 3//1
f 4//4 8//4 7//4 3//4
f 2//3 6//3 5//3 1//3
f 6//6 2//6 3//6 7//6
f 1//5 5//5 8//5 4//5
usemtl Wall_Vent_VentFrame
f 13//8 14//8 15//8 16//8
f 10//7 9//7 12//7 11//7
f 12//10 16//10 15//10 11//10
f 10//9 14//9 13//9 9//9
f 14//12 10//12 11//12 15//12
f 9//11 13//11 16//11 12//11
usemtl Wall_Vent_VentBar1
f 21//14 22//14 23//14 24//14
f 18//13 17//13 20//13 19//13
f 20//16 24//16 23//16 19//16
f 18//15 22//15 21//15 17//15
f 22//18 18//18 19//18 23//18
f 17//17 21//17 24//17 20//17
usemtl Wall_Vent_VentBar2
f 29//20 30//20 31//20 32//20
f 26//19 25//19 28//19 27//19
f 28//22 32//22 31//22 27//22
f 26//21 30//21 29//21 25//21
f 30//24 26//24 27//24 31//24
f 25//23 29//23 32//23 28//23
usemtl Wall_Vent_VentBar3
f 37//26 38//26 39//26 40//26
f 34//25 33//25 36//25 35//25
f 36//28 40//28 39//28 35//28
f 34//27 38//27 37//27 33//27
f 38//30 34//30 35//30 39//30
f 33//29 37//29 40//29 36//29
