mtllib Wall_Pillars.mtl
o Wall_Pillars
v -2.0 0.0 -0.1
v 2.0 0.0 -0.1
v 2.0 3.0 -0.1
v -2.0 3.0 -0.1
v -2.0 0.0 0.1
v 2.0 0.0 0.1
v 2.0 3.0 0.1
v -2.0 3.0 0.1
v -1.6 0.0 -0.09999999999999999
v -1.6 3.0 -0.09999999999999999
v -2.0 0.0 0.2
v -1.6 0.0 0.2
v -1.6 3.0 0.2
v -2.0 3.0 0.2
v 1.6 0.0 -0.09999999999999999
v 1.6 3.0 -0.09999999999999999
v 1.6 0.0 0.2
v 2.0 0.0 0.2
v 2.0 3.0 0.2
v 1.6 3.0 0.2
vn 0 0 -1
vn 0 0 1
vn 0 -1 0
vn 0 1 0
vn -1 0 0
vn 1 0 0
vn 0 0 -1
vn 0 0 1
vn 0 -1 0
vn 0 1 0
vn -1 0 0
vn 1 0 0
vn 0 0 -1
vn 0 0 1
vn 0 -1 0
vn 0 1 0
vn -1 0 0
vn 1 0 0
s off
usemtl Wall_Pillars_MainWall
f 5//2 6//2 7//2 8//2
f 2//1 1//1 4//1 3//1
f 4//4 8//4 7//4 3//4
f 2//3 6//3 5//3 1//3
f 6//6 2//6 3//6 7//6
f 1//5 5//5 8//5 4//5
usemtl Wall_Pillars_PillarLeft
f 11//8 12//8 13//8 14//8
f 9//7 1//7 4//7 10//7
f 4//10 14//10 13//10 10//10
f 9//9 12//9 11//9 1//9
f 12//12 9//12 10//12 13//12
f 1//11 11//11 14//11 4//11
usemtl Wall_Pillars_PillarRight
f 17//14 18//14 19//14 20//14
f 2//13 15//13 16//13 3//13
f 16//16 20//16 19//16 3//16
f 2//15 18//15 17//15 15//15
f 18//18 2//18 3//18 19//18
f 15//17 17//17 20//17 16//17
